<svg xmlns="http://www.w3.org/2000/svg" viewBox="0 0 245.74 230"><defs><style>.cls-1{fill:#ac0d0d}</style></defs><g id="Layer_2" data-name="Layer 2"><g id="Layer_1-2" data-name="Layer 1"><path class="cls-1" d="M136 106.13c0 3.09.11 6.19 0 9.28-.26 6.35 1.82 11.6 7 15.4 2.31 1.67 3 3.77 2.77 6.63-.51 8-.41 16.09-1.06 24.09-.63 7.7-3.41 10.43-10.92 11.7-8.71 1.47-17.38 1.46-25.91-1.26-5.24-1.67-8.93-5-9.07-10.58-.25-10.72-.06-21.45.26-32.17 0-1.59 1.52-3.51 2.86-4.64 9.08-7.64 7.17-27.27 1.19-34.35C96.76 82.72 86.84 83.5 82 92c-4.26 7.52-4.94 25.76 4.36 33a10 10 0 013.39 7 212 212 0 01-.93 26.44c-.94 8.33-5.07 11.84-13.48 12.1a107.4 107.4 0 01-19.63-1.16c-6.25-1-8.87-4.44-8.85-10.65.07-18.8.08-37.61.68-56.39A66.35 66.35 0 0151 84.54c5.78-18.22 19.26-27.86 39.07-28.47 10.54-.32 20.6 1.34 29.68 7.24a4.47 4.47 0 003.83-.21c14.55-8.67 29.93-9.22 45.44-3.81 15.2 5.31 22.07 17.84 24.82 32.71 1.43 7.74 1.46 15.75 2 23.64 1 13.77 1.66 27.56 2.87 41.3.76 8.57-1.89 13.84-10.26 15.56a90.23 90.23 0 01-20 1.52c-5.61-.12-9.91-3.5-12-8.85-3.85-10-3.08-20.32-1.8-30.62a7.13 7.13 0 012.59-3.95c5.18-4.38 6.65-10.09 6.52-16.54-.13-6.85 0-13.71-.25-20.56 0-1.28-1.25-2.52-1.92-3.78-.77 1.31-2.18 2.6-2.21 3.93-.2 7 0 14-.08 21 0 1.11-.87 2.21-1.34 3.32-.57-1.15-1.6-2.28-1.64-3.44-.23-6.85-.12-13.72-.43-20.57-.06-1.36-1.43-2.66-2.2-4-.77 1.36-2.14 2.7-2.19 4.08-.21 6.17.08 12.37-.08 18.55 0 1.76-1 3.5-1.48 5.26-.59-1.82-1.64-3.62-1.7-5.46-.22-6 0-12.1-.18-18.15-.05-1.37-1.38-2.69-2.12-4-.71 1.36-2 2.71-2 4.1-.22 6.72 0 13.45-.2 20.16 0 1.16-1.14 2.3-1.75 3.44-.48-1.11-1.33-2.21-1.37-3.34-.23-6.72-.18-13.45-.47-20.16-.05-1.3-1.23-2.56-1.89-3.83-.79 1.29-2.14 2.53-2.25 3.87-.31 3.88-.11 7.79-.11 11.69z"/><path class="cls-1" d="M104.48 106.61c-1.17-4.44-2.45-9.3-3.74-14.22 3.83 4.2 4.34 9.31 3.74 14.22z"/></g></g></svg>