<svg xmlns="http://www.w3.org/2000/svg" viewBox="0 0 36.26 28.25"><defs><style>.cls-1{fill:#ac0d0d;}</style></defs><title>Asset 6</title><g id="Layer_2" data-name="Layer 2"><g id="Layer_1-2" data-name="Layer 1"><path class="cls-1" d="M21.25,12c0,.74,0,1.48,0,2.21a4,4,0,0,0,1.68,3.68,1.62,1.62,0,0,1,.66,1.58c-.12,1.91-.1,3.84-.26,5.75s-.81,2.49-2.6,2.79a12.93,12.93,0,0,1-6.18-.3,2.68,2.68,0,0,1-2.16-2.52c-.07-2.56,0-5.12.06-7.68a1.81,1.81,0,0,1,.68-1.11c2.16-1.82,1.71-6.5.28-8.19a2.93,2.93,0,0,0-5,.42c-1,1.8-1.18,6.15,1,7.87a2.35,2.35,0,0,1,.81,1.66,49,49,0,0,1-.22,6.3c-.22,2-1.21,2.83-3.21,2.89a26.26,26.26,0,0,1-4.69-.27A2.23,2.23,0,0,1,0,24.54c0-4.48,0-9,.16-13.45A16.17,16.17,0,0,1,1,6.86C2.36,2.51,5.58.21,10.3.07a11.9,11.9,0,0,1,7.08,1.72,1,1,0,0,0,.92-.05A12.34,12.34,0,0,1,29.14.84c3.63,1.26,5.27,4.25,5.92,7.8a50.47,50.47,0,0,1,.48,5.64c.24,3.29.4,6.58.69,9.86.18,2-.45,3.3-2.45,3.71a21.14,21.14,0,0,1-4.77.36,3.07,3.07,0,0,1-2.85-2.11,14.73,14.73,0,0,1-.43-7.31,1.77,1.77,0,0,1,.61-.94,4.65,4.65,0,0,0,1.56-3.94c0-1.64,0-3.28-.06-4.91,0-.31-.3-.6-.46-.9-.18.31-.52.62-.53.93,0,1.67,0,3.34,0,5a2.63,2.63,0,0,1-.32.79c-.14-.27-.38-.54-.39-.82-.06-1.64,0-3.27-.11-4.91,0-.32-.34-.63-.52-.95-.19.32-.51.64-.52,1-.05,1.48,0,3,0,4.43a4.8,4.8,0,0,1-.36,1.25,4.87,4.87,0,0,1-.4-1.3c-.05-1.44,0-2.89-.05-4.33,0-.32-.33-.64-.5-1-.17.33-.48.65-.49,1-.05,1.6,0,3.21,0,4.81,0,.28-.27.55-.42.82a2.71,2.71,0,0,1-.33-.8c-.05-1.6,0-3.21-.11-4.81,0-.31-.29-.61-.45-.91-.19.31-.51.6-.54.92-.07.93,0,1.86,0,2.79Z"/><path class="cls-1" d="M13.74,12.12l-.89-3.39A4,4,0,0,1,13.74,12.12Z"/></g></g></svg>